<?xml version="1.0" encoding="UTF-8" standalone="no"?>
<!DOCTYPE svg PUBLIC "-//W3C//DTD SVG 1.1//EN" "http://www.w3.org/Graphics/SVG/1.1/DTD/svg11.dtd">
<svg width="100%" height="100%" viewBox="0 0 17 17" version="1.1" xmlns="http://www.w3.org/2000/svg" xmlns:xlink="http://www.w3.org/1999/xlink" xml:space="preserve" style="fill-rule:evenodd;clip-rule:evenodd;stroke-linejoin:round;stroke-miterlimit:1.41421;">
    <g transform="matrix(1,0,0,1,-1056.88,-733.093)">
        <path d="M1065.07,743.75C1063.76,743.7 1062.71,742.595 1062.76,741.311C1062.8,739.984 1063.88,738.958 1065.18,738.992C1066.5,739.028 1067.55,740.151 1067.49,741.468C1067.44,742.741 1066.31,743.796 1065.07,743.75M1065.13,738.161C1063.34,738.161 1061.9,739.577 1061.9,741.337C1061.9,743.138 1063.34,744.579 1065.12,744.573C1066.9,744.562 1068.32,743.138 1068.32,741.368C1068.32,739.597 1066.89,738.162 1065.13,738.161" style="fill:rgb(147,149,152);fill-rule:nonzero;"/>
        <path d="M1068.58,738.98C1069.67,741.265 1069.4,743.182 1067.83,744.521C1066.36,745.782 1064.28,745.874 1062.67,744.735C1061.9,744.188 1061.39,743.442 1061.11,742.539C1060.73,741.284 1060.99,740.122 1061.65,739L1057,739C1057,741.535 1056.96,744.027 1057.02,746.517C1057.06,748.221 1058.49,749.463 1060.24,749.464C1063.46,749.469 1066.68,749.468 1069.9,749.463C1071.91,749.459 1073.27,748.088 1073.28,746.08L1073.28,739.502L1073.28,738.98L1068.58,738.98Z" style="fill:rgb(147,149,152);fill-rule:nonzero;"/>
        <path d="M1071.79,736.632C1071.79,737.068 1071.57,737.272 1071.14,737.265C1070.88,737.258 1070.61,737.263 1070.35,737.263C1069.01,737.265 1069.02,737.265 1069.01,735.925C1069.01,734.407 1068.93,734.426 1070.51,734.438C1071.79,734.451 1071.79,734.438 1071.79,735.688C1071.79,736.003 1071.78,736.317 1071.79,736.632M1069.89,733.095C1067.2,733.093 1064.5,733.093 1061.81,733.093L1061.22,733.093L1061.22,737.14L1060.59,737.14C1060.58,736.952 1060.56,736.774 1060.56,736.594C1060.56,735.548 1060.56,734.501 1060.57,733.454C1060.57,733.148 1060.49,733.009 1060.12,733.158L1060.12,737.13L1059.43,737.13L1059.43,733.252C1059.37,733.233 1059.31,733.216 1059.24,733.198C1059.16,733.351 1059.02,733.5 1059.02,733.658C1058.99,734.254 1059,734.855 1059,735.453L1059,737.124L1058.3,737.124L1058.3,733.753C1057.06,734.677 1056.57,736.635 1057.09,738.448C1058.6,738.448 1060.12,738.462 1061.65,738.435C1061.92,738.429 1062.23,738.313 1062.44,738.149C1064.09,736.856 1066.2,736.868 1067.81,738.192C1067.94,738.305 1068.12,738.438 1068.28,738.438C1069.92,738.457 1071.56,738.448 1073.28,738.448L1073.28,736.488C1073.28,734.499 1071.88,733.095 1069.89,733.095" style="fill:rgb(147,149,152);fill-rule:nonzero;"/>
    </g>
</svg>
