<?xml version="1.0" encoding="UTF-8" standalone="no"?>
<!DOCTYPE svg PUBLIC "-//W3C//DTD SVG 1.1//EN" "http://www.w3.org/Graphics/SVG/1.1/DTD/svg11.dtd">
<svg width="100%" height="100%" viewBox="0 0 17 17" version="1.1" xmlns="http://www.w3.org/2000/svg" xmlns:xlink="http://www.w3.org/1999/xlink" xml:space="preserve" style="fill-rule:evenodd;clip-rule:evenodd;stroke-linejoin:round;stroke-miterlimit:1.41421;">
    <g transform="matrix(1,0,0,1,-1014.55,-732.737)">
        <path d="M1022.76,741.879L1016.11,737.907L1022.76,741.879L1029.78,737.771L1022.76,741.879ZM1022.7,732.737C1018.2,732.737 1014.55,736.386 1014.55,740.888C1014.55,745.393 1018.2,749.043 1022.7,749.043C1027.21,749.043 1030.86,745.393 1030.86,740.888C1030.86,736.386 1027.21,732.737 1022.7,732.737" style="fill:rgb(147,149,152);fill-rule:nonzero;"/>
        <path d="M1022.76,743.224L1016.49,738.12L1016.49,744.462L1029.07,744.462L1029.07,738.172L1022.76,743.224Z" style="fill:white;fill-rule:nonzero;"/>
        <path d="M1029.09,738.087L1029.09,737.956L1016.45,737.956L1016.45,738.043L1022.75,741.29L1029.09,738.087Z" style="fill:white;fill-rule:nonzero;"/>
    </g>
</svg>
