<?xml version="1.0" encoding="UTF-8" standalone="no"?>
<!DOCTYPE svg PUBLIC "-//W3C//DTD SVG 1.1//EN" "http://www.w3.org/Graphics/SVG/1.1/DTD/svg11.dtd">
<svg width="100%" height="100%" viewBox="0 0 17 17" version="1.1" xmlns="http://www.w3.org/2000/svg" xmlns:xlink="http://www.w3.org/1999/xlink" xml:space="preserve" style="fill-rule:evenodd;clip-rule:evenodd;stroke-linejoin:round;stroke-miterlimit:1.41421;">
    <g transform="matrix(1,0,0,1,-1035.55,-732.857)">
        <path d="M1051.86,741.007C1051.86,736.509 1048.2,732.857 1043.7,732.857C1039.2,732.857 1035.55,736.509 1035.55,741.007C1035.55,745.322 1038.9,748.857 1043.15,749.143L1043.15,742.569L1041.9,742.569L1041.9,740.384L1043.15,740.384L1043.15,740.013C1043.15,738.862 1043.5,737.595 1044.36,736.813C1045.1,736.114 1046.14,735.857 1046.99,735.857C1047.66,735.857 1048.16,735.938 1048.58,736.052L1048.46,738.334C1048.2,738.259 1047.89,738.199 1047.5,738.199C1046.53,738.199 1046.12,738.961 1046.12,739.897L1046.12,740.384L1048.03,740.384L1048.03,742.569L1046.14,742.569L1046.14,748.794C1049.45,747.761 1051.86,744.664 1051.86,741.007" style="fill:rgb(147,149,152);fill-rule:nonzero;"/>
    </g>
</svg>
